<svg width="64" height="64" viewBox="0 0 64 64" fill="none" xmlns="http://www.w3.org/2000/svg">
  <defs>
    <linearGradient id="tile" x1="10" y1="8" x2="56" y2="56" gradientUnits="userSpaceOnUse">
      <stop stop-color="#FFFFFF"/>
      <stop offset="1" stop-color="#EAF2FF"/>
    </linearGradient>
    <linearGradient id="headset" x1="18" y1="18" x2="46" y2="46" gradientUnits="userSpaceOnUse">
      <stop stop-color="#3B82F6"/>
      <stop offset="1" stop-color="#1E3A5F"/>
    </linearGradient>
    <filter id="shadow" x="0" y="0" width="64" height="64" filterUnits="userSpaceOnUse" color-interpolation-filters="sRGB">
      <feDropShadow dx="0" dy="6" stdDeviation="6" flood-color="#0F172A" flood-opacity="0.18"/>
    </filter>
  </defs>
  <g filter="url(#shadow)">
    <rect x="6" y="6" width="52" height="52" rx="16" fill="url(#tile)"/>
    <rect x="6.75" y="6.75" width="50.5" height="50.5" rx="15.25" stroke="#D6E4FF" stroke-width="1.5"/>
    <path d="M18 31.5C18 21.835 24.268 15 32 15C39.732 15 46 21.835 46 31.5" stroke="url(#headset)" stroke-width="4.5" stroke-linecap="round"/>
    <rect x="15.5" y="31" width="7" height="15" rx="3.5" fill="#1E3A5F"/>
    <rect x="41.5" y="31" width="7" height="15" rx="3.5" fill="#1E3A5F"/>
    <path d="M25.5 35L30.5 40L39.5 29" stroke="#F59E0B" stroke-width="4.5" stroke-linecap="round" stroke-linejoin="round"/>
    <circle cx="45.5" cy="18.5" r="3.5" fill="#FBBF24"/>
    <path d="M20 48H44" stroke="#D7E6FF" stroke-width="2" stroke-linecap="round"/>
  </g>
</svg>
